<svg xmlns="http://www.w3.org/2000/svg" width="512" height="512" id="mobile"><path fill="#3F5EAB" d="M310.666 447.167h-194c-9.941 0-18-8.06-18-18V82.833c0-9.941 8.059-18 18-18h194c9.941 0 18 8.059 18 18v346.334c0 9.94-8.059 18-18 18z"></path><linearGradient id="a" x1="86.176" x2="341.159" y1="378.309" y2="123.326" gradientUnits="userSpaceOnUse"><stop offset="0" stop-color="#0FF"></stop><stop offset="1" stop-color="#FF7BAC"></stop></linearGradient><path fill="url(#a)" d="M113.333 96.167H314v309.3H113.333z"></path><path fill="#FFF" d="M242.514 419.784h-57.695a7.152 7.152 0 1 0 0 14.304h57.695a7.152 7.152 0 0 0 7.152-7.152 7.151 7.151 0 0 0-7.152-7.152zM229.5 77.75h-31.666c-4.826 0-4.834 7.5 0 7.5H229.5c4.826 0 4.833-7.5 0-7.5z"></path><linearGradient id="b" x1="305.584" x2="305.584" y1="332.537" y2="162.681" gradientUnits="userSpaceOnUse"><stop offset="0" stop-color="#B3B3B3"></stop><stop offset=".017" stop-color="#B9B9B9"></stop><stop offset=".108" stop-color="#D2D2D2"></stop><stop offset=".209" stop-color="#E6E6E6"></stop><stop offset=".325" stop-color="#F4F4F4"></stop><stop offset=".466" stop-color="#FDFDFD"></stop><stop offset=".709" stop-color="#FFF"></stop></linearGradient><path fill="url(#b)" d="M382.75 162.681H228.417c-16.891 0-30.583 13.692-30.583 30.583v76.452c0 16.891 13.692 30.583 30.583 30.583h32.109l18.611 32.238 18.613-32.238h85c16.891 0 30.584-13.692 30.584-30.583v-76.452c0-16.891-13.693-30.583-30.584-30.583z"></path><circle cx="255.25" cy="231.833" r="10.334" fill="#3F5EAB"></circle><circle cx="306.25" cy="231.833" r="10.334" fill="#3F5EAB"></circle><circle cx="355.917" cy="231.833" r="10.333" fill="#3F5EAB"></circle></svg>